<?xml version="1.0" encoding="UTF-8" standalone="no"?>
<!-- Created with Inkscape (http://www.inkscape.org/) -->

<svg
   xmlns:dc="http://purl.org/dc/elements/1.1/"
   xmlns:cc="http://creativecommons.org/ns#"
   xmlns:rdf="http://www.w3.org/1999/02/22-rdf-syntax-ns#"
   xmlns:svg="http://www.w3.org/2000/svg"
   xmlns="http://www.w3.org/2000/svg"
   xmlns:sodipodi="http://sodipodi.sourceforge.net/DTD/sodipodi-0.dtd"
   xmlns:inkscape="http://www.inkscape.org/namespaces/inkscape"
   version="1.1"
   width="640"
   height="480"
   id="svg3216"
   inkscape:version="0.48.3.1 r9886"
   sodipodi:docname="speed-car-logo-2.svg">
  <sodipodi:namedview
     pagecolor="#ffffff"
     bordercolor="#666666"
     borderopacity="1"
     objecttolerance="10"
     gridtolerance="10"
     guidetolerance="10"
     inkscape:pageopacity="0"
     inkscape:pageshadow="2"
     inkscape:window-width="1855"
     inkscape:window-height="1056"
     id="namedview19"
     showgrid="false"
     inkscape:zoom="1.5083333"
     inkscape:cx="319.99999"
     inkscape:cy="239.99999"
     inkscape:window-x="65"
     inkscape:window-y="24"
     inkscape:window-maximized="1"
     inkscape:current-layer="svg3216" />
  <defs
     id="defs3218" />
  <metadata
     id="metadata3221">
    <rdf:RDF>
      <cc:Work
         rdf:about="">
        <dc:format>image/svg+xml</dc:format>
        <dc:type
           rdf:resource="http://purl.org/dc/dcmitype/StillImage" />
        <dc:title />
      </cc:Work>
    </rdf:RDF>
  </metadata>
  <g
     id="layer1">
    <rect
       width="640"
       height="480"
       x="0"
       y="2.2888184e-05"
       id="rect3224"
       style="fill:#f2f2f2;fill-opacity:1;stroke:#397f2a;stroke-width:0;stroke-miterlimit:4;stroke-opacity:1;stroke-dasharray:none" />
  </g>
  <path
     style="fill:#000000;stroke:#000000;stroke-width:0.52011967px;stroke-linecap:butt;stroke-linejoin:miter;stroke-opacity:1"
     d="m 95.418337,300.59769 c 1.09356,-0.14731 35.140563,-18.09484 35.140563,-18.09484 -24.42405,-33.59015 -38.757323,-30.89504 -56.323393,-35.83634 17.7361,20.24258 22.27519,32.3539 21.18283,53.93118 z"
     id="path2987"
     inkscape:connector-curvature="0"
     sodipodi:nodetypes="cccc" />
  <path
     style="fill:#000000;stroke:#000000;stroke-width:0.52011967px;stroke-linecap:butt;stroke-linejoin:miter;stroke-opacity:1"
     d="m 73.855557,246.34562 21.13378,20.07203 c 31.519693,-22.93307 93.007813,-40.36523 162.967753,-44.49999 -71.50578,-6.25858 -135.52427,1.67306 -184.101533,24.42796 z"
     id="path2989"
     inkscape:connector-curvature="0"
     sodipodi:nodetypes="cccc" />
  <path
     style="fill:#000000;stroke:#000000;stroke-width:0.52011967px;stroke-linecap:butt;stroke-linejoin:miter;stroke-opacity:1"
     d="m 254.6637,177.58074 24.18358,3.10966 c -27.46918,23.55693 -37.44971,27.78273 -66.88255,45.40474 29.33491,-28.7244 40.52721,-38.24001 42.69897,-48.5144 z"
     id="path2991"
     inkscape:connector-curvature="0"
     sodipodi:nodetypes="cccc" />
  <path
     style="fill:#000000;stroke:#000000;stroke-width:0.52011967px;stroke-linecap:butt;stroke-linejoin:miter;stroke-opacity:1"
     d="m 254.4882,177.56959 c 73.46124,8.91721 137.83796,52.04177 196.44739,57.32211 l 9.50378,-22.43532 C 395.32022,219.37089 331.54034,159.18725 254.4882,177.56959 z"
     id="path2993"
     inkscape:connector-curvature="0"
     sodipodi:nodetypes="cccc" />
  <path
     style="fill:#000000;stroke:#000000;stroke-width:0.52011967px;stroke-linecap:butt;stroke-linejoin:miter;stroke-opacity:1"
     d="m 385.13956,217.58948 c 22.07861,-13.60136 37.53122,-23.85765 75.50952,-11.8419 -1.85126,-25.44419 2.28956,-34.21541 12.93485,-46.5578 -45.72627,8.27061 -69.13181,25.08686 -88.44437,58.3997 z"
     id="path2995"
     inkscape:connector-curvature="0"
     sodipodi:nodetypes="cccc" />
  <g
     style="font-size:144px;font-style:normal;font-weight:normal;line-height:125%;letter-spacing:0px;word-spacing:0px;fill:#000000;fill-opacity:1;stroke:none;font-family:Sans"
     id="text3080-1-9"
     transform="matrix(0.6201133,0,0,0.34818301,1387.0904,-155.03851)">
    <path
       d="m -1929.4738,1163.0798 0,14.9766 c -4.7813,-4.453 -9.8907,-7.7812 -15.3281,-9.9844 -5.3907,-2.203 -11.1329,-3.3046 -17.2265,-3.3047 -12.0001,10e-5 -21.1876,3.6798 -27.5625,11.0391 -6.3751,7.3126 -9.5626,17.9063 -9.5625,31.7812 -10e-5,13.8282 3.1874,24.4219 9.5625,31.7813 6.3749,7.3125 15.5624,10.9688 27.5625,10.9687 6.0936,10e-5 11.8358,-1.1015 17.2265,-3.3046 5.4374,-2.2032 10.5468,-5.5313 15.3281,-9.9844 l 0,14.8359 c -4.9688,3.375 -10.2422,5.9063 -15.8203,7.5938 -5.5313,1.6875 -11.3907,2.5312 -17.5781,2.5312 -15.8907,0 -28.4063,-4.8515 -37.5469,-14.5547 -9.1406,-9.7499 -13.7109,-23.039 -13.7109,-39.8672 0,-16.8749 4.5703,-30.1639 13.7109,-39.8671 9.1406,-9.7499 21.6562,-14.6249 37.5469,-14.625 6.2812,1e-4 12.1874,0.8438 17.7188,2.5312 5.578,1.6407 10.8046,4.1251 15.6796,7.4531"
       id="path3085-3-1"
       inkscape:connector-curvature="0" />
    <path
       d="m -1864.7863,1164.6267 c -10.3125,10e-5 -18.5156,3.8439 -24.6093,11.5313 -6.0469,7.6875 -9.0704,18.1641 -9.0703,31.4296 -10e-5,13.2188 3.0234,23.672 9.0703,31.3594 6.0937,7.6875 14.2968,11.5313 24.6093,11.5313 10.3125,0 18.4687,-3.8438 24.4688,-11.5313 6.0468,-7.6874 9.0702,-18.1406 9.0703,-31.3594 -10e-5,-13.2655 -3.0235,-23.7421 -9.0703,-31.4296 -6.0001,-7.6874 -14.1563,-11.5312 -24.4688,-11.5313 m 0,-11.5312 c 14.7187,1e-4 26.4843,4.9454 35.2969,14.8359 8.8124,9.8438 13.2187,23.0626 13.2188,39.6562 -10e-5,16.547 -4.4064,29.7657 -13.2188,39.6563 -8.8126,9.8437 -20.5782,14.7656 -35.2969,14.7656 -14.7656,0 -26.5781,-4.9219 -35.4375,-14.7656 -8.8125,-9.8437 -13.2187,-23.0625 -13.2187,-39.6563 0,-16.5936 4.4062,-29.8124 13.2187,-39.6562 8.8594,-9.8905 20.6719,-14.8358 35.4375,-14.8359"
       id="path3087-68-9"
       inkscape:connector-curvature="0" />
    <path
       d="m -1794.0519,1154.9939 21.1641,0 26.789,71.4375 26.9297,-71.4375 21.1641,0 0,104.9766 -13.8516,0 0,-92.1797 -27.0703,72 -14.2734,0 -27.0703,-72 0,92.1797 -13.7813,0 0,-104.9766"
       id="path3089-99-9"
       inkscape:connector-curvature="0" />
    <path
       d="m -1655.5363,1166.6658 0,39.4453 17.8594,0 c 6.6093,0 11.7187,-1.7109 15.3281,-5.1328 3.6094,-3.4218 5.414,-8.2968 5.4141,-14.625 -10e-5,-6.2812 -1.8047,-11.1328 -5.4141,-14.5547 -3.6094,-3.4218 -8.7188,-5.1327 -15.3281,-5.1328 l -17.8594,0 m -14.2031,-11.6719 32.0625,0 c 11.7656,10e-5 20.6484,2.672 26.6485,8.0156 6.0468,5.297 9.0702,13.0782 9.0703,23.3438 -10e-5,10.3594 -3.0235,18.1875 -9.0703,23.4843 -6.0001,5.297 -14.8829,7.9454 -26.6485,7.9454 l -17.8594,0 0,42.1875 -14.2031,0 0,-104.9766"
       id="path3091-17-8"
       inkscape:connector-curvature="0" />
    <path
       d="m -1557.0284,1168.9861 -19.2657,52.2422 38.6016,0 -19.3359,-52.2422 m -8.0157,-13.9922 16.1016,0 40.0078,104.9766 -14.7656,0 -9.5625,-26.9297 -47.3203,0 -9.5625,26.9297 -14.9766,0 40.0781,-104.9766"
       id="path3093-2-0"
       inkscape:connector-curvature="0" />
    <path
       d="m -1493.6769,1154.9939 19.125,0 46.5469,87.8203 0,-87.8203 13.7812,0 0,104.9766 -19.125,0 -46.5468,-87.8204 0,87.8204 -13.7813,0 0,-104.9766"
       id="path3095-8-7"
       inkscape:connector-curvature="0" />
    <path
       d="m -1400.3722,1154.9939 15.2578,0 29.1094,43.1719 28.8984,-43.1719 15.2578,0 -37.125,54.9844 0,49.9922 -14.2734,0 0,-49.9922 -37.125,-54.9844"
       id="path3097-1-6"
       inkscape:connector-curvature="0" />
  </g>
</svg>
